P3
# Created by Paint Shop Pro 7
48 42
255
204 0 51 204 0 51 204 0 51 204 0 51 204 0 51 204 0 51 204 0 51 204 0 51 
204 0 51 204 0 51 204 0 51 204 0 51 204 0 51 204 0 51 204 0 51 204 0 51 
204 0 51 204 0 51 204 0 51 204 0 51 204 0 51 204 0 51 204 0 51 204 0 51 
204 0 51 204 0 51 204 0 51 204 0 51 204 0 51 204 0 51 204 0 51 204 0 51 
204 0 51 204 0 51 204 0 51 204 0 51 204 0 51 204 0 51 204 0 51 204 0 51 
204 0 51 204 0 51 204 0 51 204 0 51 204 0 51 204 0 51 204 0 51 204 0 51 
204 0 51 204 0 51 204 0 51 204 0 51 204 0 51 204 0 51 204 0 51 204 0 51 
204 0 51 204 0 51 204 0 51 204 0 51 204 0 51 204 0 51 204 0 51 204 0 51 
204 0 51 204 0 51 204 0 51 204 0 51 204 0 51 204 0 51 204 0 51 204 0 51 
204 0 51 204 0 51 204 0 51 204 0 51 204 0 51 204 0 51 204 0 51 204 0 51 
204 0 51 204 0 51 204 0 51 204 0 51 204 0 51 204 0 51 204 0 51 204 0 51 
204 0 51 204 0 51 204 0 51 204 0 51 204 0 51 204 0 51 204 0 51 204 0 51 
204 0 51 204 0 51 204 0 51 204 0 51 204 0 51 204 0 51 204 0 51 204 0 51 
204 0 51 204 0 51 204 0 51 204 0 51 204 0 51 204 0 51 204 0 51 204 0 51 
204 0 51 204 0 51 204 0 51 204 0 51 204 0 51 204 0 51 204 0 51 204 0 51 
204 0 51 204 0 51 204 0 51 204 0 51 204 0 51 204 0 51 204 0 51 204 0 51 
204 0 51 204 0 51 204 0 51 204 0 51 204 0 51 204 0 51 204 0 51 204 0 51 
204 0 51 204 0 51 204 0 51 204 0 51 204 0 51 204 0 51 204 0 51 204 0 51 
204 0 51 204 0 51 204 0 51 204 0 51 204 0 51 204 0 51 204 0 51 204 0 51 
204 0 51 204 0 51 204 0 51 204 0 51 204 0 51 204 0 51 204 0 51 204 0 51 
204 0 51 204 0 51 204 0 51 204 0 51 204 0 51 204 0 51 204 0 51 204 0 51 
204 0 51 204 0 51 204 0 51 204 0 51 204 0 51 204 0 51 204 0 51 204 0 51 
204 0 51 204 0 51 204 0 51 204 0 51 204 0 51 204 0 51 204 0 51 204 0 51 
204 0 51 204 0 51 204 0 51 204 0 51 204 0 51 204 0 51 204 0 51 204 0 51 
204 0 51 204 0 51 204 0 51 204 0 51 204 0 51 204 0 51 204 0 51 204 0 51 
204 0 51 204 0 51 204 0 51 204 0 51 204 0 51 204 0 51 204 0 51 204 0 51 
204 0 51 204 0 51 204 0 51 204 0 51 204 0 51 204 0 51 204 0 51 204 0 51 
204 0 51 204 0 51 204 0 51 204 0 51 204 0 51 204 0 51 204 0 51 204 0 51 
204 0 51 204 0 51 204 0 51 204 0 51 204 0 51 204 0 51 204 0 51 204 0 51 
204 0 51 204 0 51 204 0 51 204 0 51 204 0 51 204 0 51 204 0 51 204 0 51 
204 0 51 204 0 51 204 0 51 204 0 51 204 0 51 204 0 51 204 0 51 204 0 51 
204 0 51 204 0 51 204 0 51 204 0 51 204 0 51 204 0 51 204 0 51 204 0 51 
204 0 51 204 0 51 204 0 51 204 0 51 204 0 51 204 0 51 204 0 51 102 0 0 
102 0 51 102 51 51 128 0 0 204 0 51 204 0 51 204 0 51 204 0 51 204 0 51 
204 0 51 204 0 51 204 0 51 204 0 51 204 0 51 204 0 51 204 0 51 204 0 51 
204 0 51 204 0 51 204 0 51 204 0 51 204 0 51 204 0 51 204 0 51 204 0 51 
204 0 51 204 0 51 204 0 51 204 0 51 204 0 51 204 0 51 204 0 51 204 0 51 
204 0 51 204 0 51 204 0 51 204 0 51 204 0 51 204 0 51 204 0 51 204 0 51 
165 0 33 204 0 51 204 0 51 204 0 51 204 0 51 255 0 51 165 0 33 51 153 102 
192 220 192 119 119 119 102 153 153 102 51 51 204 0 51 204 0 51 204 0 51 
204 0 51 204 0 51 204 0 51 204 0 51 204 0 51 204 0 51 204 0 51 204 0 51 
204 0 51 204 0 51 204 0 51 204 0 51 204 0 51 204 0 51 204 0 51 204 0 51 
204 0 51 204 0 51 204 0 51 204 0 51 204 0 51 204 0 51 204 0 51 204 0 51 
204 0 51 204 0 51 204 0 51 204 0 51 204 0 51 204 0 51 204 0 51 204 0 51 
204 0 51 165 0 33 102 0 51 165 0 33 204 0 51 204 0 51 204 0 51 255 0 51 
165 0 33 85 85 85 153 153 102 119 119 119 102 153 102 66 66 66 204 0 51 
204 0 51 204 0 51 204 0 51 204 0 51 204 0 51 204 0 51 204 0 51 204 0 51 
204 0 51 204 0 51 204 0 51 204 0 51 204 0 51 204 0 51 204 0 51 204 0 51 
204 0 51 204 0 51 204 0 51 204 0 51 204 0 51 204 0 51 204 0 51 204 0 51 
204 0 51 204 0 51 165 0 33 51 0 0 204 0 51 255 0 51 165 0 33 204 0 51 204 0 51 
255 0 51 153 0 51 51 0 0 51 0 0 153 0 51 204 0 51 204 0 51 204 0 51 255 0 51 
22 22 22 66 66 66 204 204 153 173 169 144 102 51 51 204 0 51 204 0 51 204 0 51 
204 0 51 204 0 51 204 0 51 204 0 51 204 0 51 204 0 51 204 0 51 204 0 51 
204 0 51 204 0 51 204 0 51 204 0 51 204 0 51 204 0 51 204 0 51 204 0 51 
204 0 51 204 0 51 204 0 51 204 0 51 204 0 51 204 0 51 204 0 51 102 0 0 
204 0 51 102 0 0 8 8 8 165 0 33 204 0 51 102 0 0 255 0 51 204 0 51 165 0 33 
102 0 0 8 8 8 51 0 0 204 0 51 204 0 51 204 0 51 204 0 51 22 22 22 173 169 144 
204 204 153 51 51 51 204 0 51 204 0 51 204 0 51 204 0 51 204 0 51 204 0 51 
204 0 51 128 0 0 204 0 51 204 0 51 204 0 51 204 0 51 204 0 51 204 0 51 
204 0 51 204 0 51 204 0 51 204 0 51 204 0 51 204 0 51 204 0 51 204 0 51 
204 0 51 204 0 51 165 0 33 153 0 51 255 0 51 165 0 33 51 0 0 128 0 0 51 0 0 
4 4 4 102 0 51 128 0 0 165 0 33 165 0 33 204 0 51 51 0 0 22 22 22 102 102 0 
128 128 0 102 51 0 102 0 51 165 0 33 57 57 57 192 220 192 204 204 153 102 51 51 
128 0 0 102 51 0 51 0 0 128 0 0 204 0 51 204 0 51 102 0 51 102 0 0 102 0 51 
165 0 33 204 0 51 255 0 51 255 0 51 165 0 33 165 0 33 204 0 51 204 0 51 
204 0 51 204 0 51 204 0 51 204 0 51 204 0 51 204 0 51 204 0 51 204 0 51 
165 0 33 51 0 0 165 0 33 165 0 33 51 0 0 51 0 0 4 4 4 4 4 4 51 0 0 51 0 0 
102 0 0 102 102 0 204 153 0 255 255 0 255 204 0 255 204 0 255 204 0 204 204 0 
8 8 8 173 169 144 192 220 192 192 220 192 95 95 95 102 102 0 255 204 0 
255 255 0 102 102 0 102 51 0 51 0 0 17 17 17 51 0 0 102 0 51 165 0 33 204 0 51 
128 0 0 51 0 0 165 0 33 165 0 33 204 0 51 204 0 51 204 0 51 204 0 51 204 0 51 
204 0 51 204 0 51 204 0 51 204 0 51 204 0 51 255 0 51 204 0 51 51 0 0 102 0 51 
165 0 33 17 17 17 8 8 8 4 4 4 4 4 4 51 0 0 22 22 22 128 128 0 128 128 0 
102 102 0 128 128 0 128 128 0 102 102 51 102 102 51 173 169 144 204 204 153 
192 220 192 204 204 153 192 220 192 128 128 128 51 51 51 51 51 0 255 204 0 
255 204 0 255 204 0 204 204 0 102 102 0 51 0 0 51 0 0 51 0 0 12 12 12 128 0 0 
128 0 0 128 0 0 204 0 51 204 0 51 204 0 51 204 0 51 204 0 51 204 0 51 204 0 51 
204 0 51 204 0 51 204 0 51 204 0 51 255 0 51 204 0 51 102 0 0 128 0 0 51 0 0 
4 4 4 22 22 22 128 128 0 204 204 0 255 204 0 255 204 0 255 204 0 204 204 0 
128 128 0 22 22 22 102 102 51 153 153 102 173 169 144 231 231 214 192 220 192 
239 214 198 173 169 144 102 51 51 153 102 0 153 51 0 102 102 0 204 204 0 
255 204 0 255 204 0 255 204 0 204 153 0 51 51 0 4 4 4 51 0 0 102 0 0 51 0 0 
165 0 33 204 0 51 204 0 51 204 0 51 204 0 51 204 0 51 204 0 51 204 0 51 
204 0 51 204 0 51 204 0 51 204 0 51 102 0 51 204 0 51 165 0 33 102 0 0 
8 8 8 153 102 0 255 204 0 255 204 0 255 204 0 255 204 0 204 153 0 153 102 0 
204 102 0 204 102 51 255 102 51 255 102 51 255 102 0 204 153 0 153 153 51 
153 153 153 66 66 66 153 51 0 255 102 51 255 102 51 255 102 51 255 102 51 
153 102 0 128 128 0 204 204 0 255 204 0 255 204 0 255 204 0 17 17 17 4 4 4 
8 8 8 102 0 51 204 0 51 204 0 51 204 0 51 204 0 51 204 0 51 204 0 51 204 0 51 
204 0 51 204 0 51 204 0 51 204 0 51 204 0 51 165 0 33 51 0 0 102 0 0 51 0 0 
102 102 0 255 204 0 255 204 0 255 204 0 204 204 0 153 102 0 204 153 0 255 102 51 
255 102 51 255 153 0 255 204 0 255 153 0 204 102 51 255 102 51 255 153 0 
153 51 0 204 102 51 255 102 51 204 102 51 255 204 0 255 204 0 255 153 0 
255 102 51 255 153 51 153 102 0 204 204 0 255 204 0 255 204 0 204 153 0 
4 4 4 102 0 0 165 0 33 204 0 51 204 0 51 204 0 51 204 0 51 204 0 51 204 0 51 
204 0 51 204 0 51 204 0 51 204 0 51 204 0 51 204 0 51 204 0 51 204 0 51 
102 0 0 4 4 4 204 153 0 255 153 0 255 204 0 255 204 0 153 102 0 255 153 0 
204 102 51 204 102 51 255 204 0 255 204 0 255 204 0 255 153 51 204 102 51 
204 102 51 204 102 51 255 102 51 255 102 51 204 153 0 204 102 0 255 204 0 
255 204 0 255 204 0 255 153 0 204 102 51 255 153 51 102 51 0 255 204 0 
255 204 0 255 204 0 51 51 0 102 0 51 51 0 0 102 0 0 204 0 51 204 0 51 204 0 51 
204 0 51 204 0 51 204 0 51 204 0 51 204 0 51 204 0 51 204 0 51 204 0 51 
204 0 51 204 0 51 204 0 51 51 51 0 255 204 0 255 153 0 255 204 0 204 153 0 
204 153 0 204 102 51 204 102 51 255 153 0 255 204 0 153 102 51 153 102 0 
255 102 51 204 102 51 255 153 0 204 102 51 204 102 51 255 153 0 153 153 0 
153 153 0 128 128 0 204 153 0 255 153 0 255 204 0 255 102 51 255 102 51 
204 153 0 128 128 0 255 204 0 255 204 0 102 51 0 4 4 4 102 0 0 128 0 0 
204 0 51 204 0 51 204 0 51 204 0 51 204 0 51 204 0 51 204 0 51 204 0 51 
204 0 51 204 0 51 204 0 51 204 0 51 204 0 51 165 0 33 102 102 0 255 204 0 
255 204 0 255 204 0 153 102 0 255 153 0 204 102 51 204 102 51 255 153 0 
102 102 0 204 204 0 204 204 0 204 153 51 204 102 51 255 204 0 204 102 51 
204 102 51 255 153 51 153 153 0 255 255 0 255 255 0 204 204 0 153 153 51 
204 153 0 255 153 0 204 102 51 255 204 0 102 51 0 255 204 0 255 204 0 102 102 0 
8 8 8 128 0 0 165 0 33 204 0 51 204 0 51 204 0 51 204 0 51 204 0 51 204 0 51 
204 0 51 204 0 51 204 0 51 204 0 51 204 0 51 204 0 51 204 0 51 102 0 51 
153 153 0 255 204 0 255 204 0 204 204 0 153 102 0 255 153 0 255 153 51 
204 153 0 153 153 0 255 255 0 153 153 0 153 153 51 255 153 0 255 204 0 
255 204 0 255 102 51 204 102 51 255 153 0 204 153 0 102 102 51 192 192 192 
153 153 51 255 255 0 153 153 0 153 102 0 255 153 0 255 204 0 102 51 0 204 204 0 
255 204 0 102 102 0 165 0 33 204 0 51 204 0 51 204 0 51 204 0 51 204 0 51 
204 0 51 204 0 51 204 0 51 204 0 51 204 0 51 204 0 51 204 0 51 204 0 51 
204 0 51 204 0 51 102 0 0 204 153 0 255 204 0 255 204 0 153 153 0 204 153 0 
255 204 0 255 204 0 153 102 0 153 153 0 128 128 0 248 248 248 166 202 240 
153 153 0 255 204 0 255 204 0 255 153 0 204 102 51 255 153 0 255 204 0 
95 95 95 234 234 234 134 134 134 102 51 0 204 153 0 255 204 0 255 204 0 
255 204 0 153 102 0 204 153 0 255 204 0 102 102 0 102 0 51 165 0 33 165 0 33 
204 0 51 204 0 51 204 0 51 204 0 51 204 0 51 204 0 51 204 0 51 204 0 51 
204 0 51 204 0 51 204 0 51 204 0 51 204 0 51 102 0 0 204 153 0 255 153 0 
255 204 0 128 128 0 204 153 0 255 204 0 255 153 0 255 204 0 204 153 0 153 102 0 
153 102 51 128 128 128 153 102 51 255 204 0 255 204 0 255 153 0 204 102 51 
255 153 0 255 204 0 153 102 51 153 102 0 204 153 0 255 204 0 255 204 0 
255 204 0 255 153 0 255 204 0 153 102 0 204 153 0 255 204 0 102 102 0 102 0 0 
165 0 33 165 0 33 204 0 51 204 0 51 204 0 51 204 0 51 204 0 51 204 0 51 
204 0 51 204 0 51 204 0 51 204 0 51 204 0 51 128 0 0 102 0 51 28 28 28 
204 153 0 255 204 0 255 204 0 128 128 0 204 153 0 204 153 0 255 153 0 255 204 0 
255 204 0 255 204 0 255 153 0 255 153 0 255 153 0 255 204 0 255 153 0 255 153 0 
204 102 51 255 153 0 255 204 0 255 204 0 255 204 0 255 204 0 255 153 0 
255 204 0 204 153 0 102 102 0 255 204 0 102 51 0 204 153 0 255 204 0 102 51 0 
102 0 0 165 0 33 204 0 51 204 0 51 204 0 51 204 0 51 204 0 51 204 0 51 
204 0 51 204 0 51 204 0 51 204 0 51 204 0 51 165 0 33 102 0 51 165 0 33 
51 0 0 204 153 0 255 204 0 255 204 0 153 153 0 153 102 0 128 128 0 153 153 0 
255 204 0 255 204 0 255 204 0 255 153 0 255 204 0 255 204 0 255 204 0 255 153 0 
255 204 0 204 102 51 255 153 0 255 153 0 255 153 0 255 153 0 255 153 0 
255 204 0 255 204 0 153 153 0 204 153 0 255 204 0 51 51 0 255 153 0 255 204 0 
51 51 0 165 0 33 204 0 51 204 0 51 204 0 51 204 0 51 204 0 51 204 0 51 
204 0 51 204 0 51 204 0 51 204 0 51 204 0 51 255 0 51 204 0 51 165 0 33 
102 0 0 51 0 0 204 153 0 255 204 0 255 204 0 204 153 0 153 102 0 128 128 0 
255 255 0 204 153 0 204 153 0 204 153 0 255 204 0 255 204 0 255 204 0 255 153 0 
255 204 0 255 153 0 255 204 0 255 204 0 255 204 0 255 153 0 255 204 0 255 204 0 
153 153 0 204 153 0 128 128 0 128 128 0 255 204 0 102 51 0 255 204 0 204 153 0 
51 0 0 204 0 51 204 0 51 204 0 51 204 0 51 204 0 51 204 0 51 204 0 51 204 0 51 
204 0 51 204 0 51 204 0 51 204 0 51 128 0 0 128 0 0 165 0 33 204 0 51 165 0 33 
102 102 0 255 204 0 255 153 0 204 204 0 102 51 0 102 102 0 255 255 0 153 153 0 
153 102 51 128 128 0 255 204 0 153 153 0 204 153 0 255 204 0 255 153 0 
255 153 0 255 153 0 255 153 0 255 153 0 255 204 0 102 102 0 204 153 0 153 102 51 
102 51 51 153 153 0 153 102 0 153 102 0 153 153 0 255 204 0 51 51 0 204 0 51 
204 0 51 204 0 51 204 0 51 204 0 51 204 0 51 204 0 51 204 0 51 204 0 51 
204 0 51 204 0 51 204 0 51 204 0 51 204 0 51 255 0 51 204 0 51 204 0 51 
165 0 33 17 17 17 255 204 0 255 153 0 255 204 0 102 102 0 153 102 0 204 204 0 
204 204 0 102 102 51 150 150 150 153 102 0 153 153 0 128 128 0 204 153 0 
255 204 0 255 153 0 255 153 0 255 153 0 255 204 0 204 153 0 153 153 51 
102 102 0 204 204 255 204 204 0 204 204 0 204 102 0 102 51 0 255 204 0 
153 102 0 128 0 0 204 0 51 204 0 51 204 0 51 204 0 51 204 0 51 204 0 51 
204 0 51 204 0 51 204 0 51 204 0 51 204 0 51 204 0 51 204 0 51 204 0 51 
204 0 51 204 0 51 102 0 0 51 0 0 17 17 17 102 102 0 255 204 0 255 204 0 
204 153 0 153 102 0 102 102 51 255 255 0 255 255 51 255 251 240 192 192 192 
153 153 102 173 169 144 102 102 51 255 204 0 255 204 0 255 204 0 255 204 0 
255 204 0 153 102 51 248 248 248 204 204 204 204 153 102 255 255 0 102 102 0 
153 102 0 153 102 0 204 153 0 4 4 4 51 0 0 165 0 33 255 0 51 204 0 51 204 0 51 
204 0 51 204 0 51 204 0 51 204 0 51 204 0 51 204 0 51 204 0 51 204 0 51 
204 0 51 204 0 51 204 0 51 204 0 51 51 0 0 102 0 0 102 0 0 12 12 12 204 153 0 
255 204 0 255 204 0 51 51 0 204 153 0 128 128 0 255 255 0 255 255 0 204 204 153 
204 236 255 255 255 255 215 215 215 153 102 102 153 102 51 153 153 51 204 153 102 
173 169 144 204 204 204 239 214 198 204 204 51 255 255 0 102 102 0 204 153 0 
102 102 0 153 102 0 4 4 4 4 4 4 8 8 8 4 4 4 102 0 0 204 0 51 255 0 51 204 0 51 
204 0 51 204 0 51 204 0 51 204 0 51 204 0 51 204 0 51 204 0 51 204 0 51 
204 0 51 204 0 51 128 0 0 102 0 0 51 0 0 51 0 0 4 4 4 4 4 4 153 102 0 255 204 0 
204 153 0 102 51 0 204 153 0 128 128 0 255 255 0 255 255 0 204 204 0 204 204 51 
204 204 51 204 204 102 204 204 153 204 204 102 204 204 102 204 204 51 204 204 0 
255 255 0 204 204 0 57 57 57 255 204 0 102 102 0 4 4 4 4 4 4 8 8 8 8 8 8 
12 12 12 51 0 0 51 0 0 51 0 0 102 0 51 204 0 51 204 0 51 204 0 51 204 0 51 
204 0 51 204 0 51 204 0 51 204 0 51 204 0 51 204 0 51 165 0 33 102 0 0 
102 0 0 51 0 0 22 22 22 51 0 0 4 4 4 4 4 4 51 51 0 204 153 0 153 102 0 
153 102 0 204 153 0 102 102 0 204 153 0 153 204 0 204 204 0 204 204 0 204 204 0 
204 204 0 204 204 0 153 204 0 204 204 0 153 153 51 102 102 0 102 102 0 
255 204 0 102 102 0 12 12 12 51 0 0 17 17 17 102 0 0 51 0 0 51 0 0 51 0 0 
165 0 33 102 0 0 51 0 0 165 0 33 204 0 51 204 0 51 204 0 51 204 0 51 204 0 51 
204 0 51 204 0 51 204 0 51 204 0 51 102 0 51 102 0 0 51 0 0 102 0 0 22 22 22 
8 8 8 51 0 0 8 8 8 4 4 4 4 4 4 51 51 0 8 8 8 51 51 0 255 153 0 255 204 0 
204 153 0 153 102 0 153 102 0 153 102 51 153 102 0 153 102 0 153 102 0 
204 153 0 255 204 0 255 204 0 204 153 0 51 51 0 17 17 17 51 0 0 51 0 0 
102 0 0 51 0 0 51 0 0 51 0 0 102 0 0 51 0 0 204 0 51 102 0 51 128 0 0 204 0 51 
204 0 51 204 0 51 204 0 51 204 0 51 204 0 51 204 0 51 204 0 51 165 0 33 
102 0 51 102 0 51 102 0 0 51 0 0 128 0 0 102 0 0 51 0 0 17 17 17 8 8 8 
4 4 4 4 4 4 8 8 8 4 4 4 4 4 4 102 102 0 204 153 0 255 204 0 255 204 0 255 204 0 
255 204 0 255 204 0 204 153 0 153 102 0 102 51 0 22 22 22 17 17 17 4 4 4 
17 17 17 51 0 0 51 0 0 51 0 0 165 0 33 128 0 0 51 0 0 102 0 0 153 0 51 
165 0 33 204 0 51 204 0 51 204 0 51 204 0 51 204 0 51 204 0 51 204 0 51 
255 0 51 204 0 51 204 0 51 204 0 51 204 0 51 102 0 0 51 0 0 153 0 51 165 0 33 
165 0 33 128 0 0 102 0 51 51 0 0 8 8 8 8 8 8 4 4 4 4 4 4 4 4 4 4 4 4 4 4 4 
22 22 22 102 51 0 102 51 0 51 0 0 12 12 12 4 4 4 4 4 4 51 0 0 51 0 0 128 0 0 
51 0 0 8 8 8 8 8 8 102 0 0 51 0 0 51 0 0 204 0 51 102 0 0 51 0 0 102 0 0 
165 0 33 204 0 51 204 0 51 204 0 51 204 0 51 204 0 51 204 0 51 204 0 51 
204 0 51 204 0 51 204 0 51 153 0 51 102 0 51 165 0 33 102 0 51 165 0 33 
204 0 51 165 0 33 204 0 51 128 0 0 165 0 33 51 0 0 102 0 0 102 0 0 51 0 0 
8 8 8 4 4 4 102 0 0 165 0 33 204 0 51 204 0 51 165 0 33 102 0 51 17 17 17 
8 8 8 8 8 8 102 0 0 102 0 51 204 0 51 165 0 33 128 0 0 102 0 51 204 0 51 
165 0 33 165 0 33 204 0 51 165 0 33 128 0 0 165 0 33 204 0 51 204 0 51 
204 0 51 204 0 51 204 0 51 204 0 51 204 0 51 204 0 51 204 0 51 204 0 51 
165 0 33 204 0 51 204 0 51 204 0 51 165 0 33 153 0 51 204 0 51 128 0 0 
165 0 33 165 0 33 165 0 33 128 0 0 102 0 0 51 0 0 51 0 0 102 0 0 165 0 33 
204 0 51 204 0 51 204 0 51 165 0 33 204 0 51 51 0 0 128 0 0 51 0 0 51 0 0 
204 0 51 204 0 51 204 0 51 204 0 51 204 0 51 204 0 51 204 0 51 204 0 51 
204 0 51 204 0 51 204 0 51 204 0 51 204 0 51 204 0 51 204 0 51 204 0 51 
204 0 51 204 0 51 204 0 51 204 0 51 204 0 51 204 0 51 204 0 51 204 0 51 
255 0 51 165 0 33 128 0 0 204 0 51 153 0 51 204 0 51 204 0 51 204 0 51 
102 0 0 204 0 51 51 0 0 128 0 0 51 0 0 204 0 51 204 0 51 204 0 51 204 0 51 
204 0 51 204 0 51 204 0 51 128 0 0 128 0 0 102 0 0 128 0 0 128 0 0 204 0 51 
204 0 51 204 0 51 204 0 51 204 0 51 204 0 51 204 0 51 204 0 51 204 0 51 
204 0 51 204 0 51 204 0 51 204 0 51 204 0 51 204 0 51 204 0 51 204 0 51 
204 0 51 204 0 51 204 0 51 204 0 51 204 0 51 204 0 51 204 0 51 204 0 51 
255 0 51 102 0 51 204 0 51 165 0 33 204 0 51 102 0 51 204 0 51 204 0 51 
51 0 0 204 0 51 165 0 33 255 0 51 204 0 51 204 0 51 204 0 51 204 0 51 204 0 51 
204 0 51 204 0 51 51 0 0 165 0 33 204 0 51 102 0 0 204 0 51 204 0 51 204 0 51 
204 0 51 204 0 51 204 0 51 204 0 51 204 0 51 204 0 51 204 0 51 204 0 51 
204 0 51 204 0 51 204 0 51 204 0 51 204 0 51 204 0 51 204 0 51 204 0 51 
204 0 51 204 0 51 204 0 51 204 0 51 204 0 51 204 0 51 204 0 51 255 0 51 
204 0 51 204 0 51 204 0 51 204 0 51 204 0 51 204 0 51 204 0 51 204 0 51 
204 0 51 204 0 51 204 0 51 204 0 51 204 0 51 204 0 51 204 0 51 204 0 51 
255 0 51 165 0 33 204 0 51 204 0 51 204 0 51 204 0 51 204 0 51 204 0 51 
204 0 51 204 0 51 204 0 51 204 0 51 204 0 51 204 0 51 204 0 51 204 0 51 
204 0 51 204 0 51 204 0 51 204 0 51 204 0 51 204 0 51 204 0 51 204 0 51 
204 0 51 204 0 51 204 0 51 204 0 51 204 0 51 204 0 51 204 0 51 204 0 51 
204 0 51 204 0 51 204 0 51 204 0 51 204 0 51 204 0 51 204 0 51 204 0 51 
204 0 51 204 0 51 204 0 51 204 0 51 204 0 51 204 0 51 204 0 51 204 0 51 
204 0 51 204 0 51 204 0 51 204 0 51 204 0 51 204 0 51 204 0 51 204 0 51 
204 0 51 204 0 51 204 0 51 204 0 51 204 0 51 204 0 51 204 0 51 204 0 51 
204 0 51 204 0 51 204 0 51 204 0 51 204 0 51 204 0 51 204 0 51 204 0 51 
204 0 51 204 0 51 204 0 51 204 0 51 204 0 51 204 0 51 204 0 51 204 0 51 
204 0 51 204 0 51 204 0 51 204 0 51 204 0 51 204 0 51 204 0 51 204 0 51 
204 0 51 204 0 51 204 0 51 204 0 51 204 0 51 204 0 51 204 0 51 204 0 51 
204 0 51 204 0 51 204 0 51 204 0 51 204 0 51 204 0 51 204 0 51 204 0 51 
204 0 51 204 0 51 204 0 51 204 0 51 204 0 51 204 0 51 204 0 51 204 0 51 
204 0 51 204 0 51 204 0 51 204 0 51 204 0 51 204 0 51 204 0 51 204 0 51 
204 0 51 204 0 51 204 0 51 204 0 51 204 0 51 204 0 51 204 0 51 204 0 51 
204 0 51 204 0 51 204 0 51 204 0 51 204 0 51 204 0 51 204 0 51 204 0 51 
204 0 51 204 0 51 204 0 51 204 0 51 204 0 51 204 0 51 204 0 51 204 0 51 
204 0 51 204 0 51 204 0 51 204 0 51 204 0 51 204 0 51 204 0 51 204 0 51 
204 0 51 204 0 51 204 0 51 204 0 51 204 0 51 204 0 51 204 0 51 204 0 51 
204 0 51 204 0 51 204 0 51 204 0 51 204 0 51 204 0 51 
